<svg width="35" height="35" viewBox="0 0 35 35" fill="none" xmlns="http://www.w3.org/2000/svg">
<g clip-path="url(#clip0)">
<path d="M10.1174 25.9299C8.58831 25.8518 8.61711 23.701 10.1174 23.6263C14.3671 23.6411 25.5762 23.6303 29.9612 23.6334C31.1605 23.6334 32.1865 22.8172 32.4563 21.6487L34.9462 10.8668C35.0888 10.2494 34.9449 9.61049 34.5515 9.11386C34.1581 8.61724 33.5691 8.32841 32.9355 8.32841C31.1716 8.32841 16.198 8.26063 8.5286 8.23006L7.31287 3.71915C7.02102 2.64117 6.03729 1.88834 4.92052 1.88834H1.02594C0.459346 1.88834 0 2.34768 0 2.91427C0 3.48086 0.459346 3.94021 1.02594 3.94021H4.92052C5.11278 3.94021 5.28206 4.06982 5.33206 4.25428L10.0011 21.5773C9.18014 21.6071 8.41548 21.941 7.83562 22.5293C7.22635 23.1476 6.89914 23.9661 6.91426 24.8339C6.94449 26.5696 8.38142 27.9817 10.1174 27.9817H11.6134C11.391 28.4484 11.2662 28.9702 11.2662 29.5207C11.2662 31.5007 12.8771 33.1116 14.8571 33.1116C16.8372 33.1116 18.448 31.5007 18.448 29.5207C18.448 28.9702 18.3231 28.4484 18.1008 27.9817H24.579C24.3568 28.4483 24.232 28.9698 24.232 29.5201C24.232 31.5002 25.8429 33.111 27.8229 33.111C29.803 33.111 31.4139 31.5001 31.4139 29.5201C31.4139 28.9484 31.2789 28.4078 31.0402 27.9275C31.4462 27.7908 31.7389 27.4079 31.7389 26.9558C31.7389 26.3893 31.2795 25.9299 30.713 25.9299H10.1174ZM16.3961 29.5208C16.3961 30.3694 15.7057 31.0598 14.8571 31.0598C14.0084 31.0598 13.318 30.3694 13.318 29.5208C13.318 28.6726 14.0077 27.9825 14.8558 27.9818H14.8584C15.7064 27.9825 16.3961 28.6726 16.3961 29.5208ZM27.823 31.0592C26.9744 31.0592 26.2839 30.3688 26.2839 29.5202C26.2839 28.68 26.9609 27.9953 27.798 27.9818H27.848C28.6852 27.9953 29.3621 28.68 29.3621 29.5202C29.3621 30.3688 28.6716 31.0592 27.823 31.0592ZM32.9431 10.3878C32.9492 10.3955 32.9483 10.3991 32.947 10.405L31.8978 14.9482H28.3452L28.9502 10.3641L32.9273 10.3801C32.9334 10.3802 32.937 10.3802 32.9431 10.3878ZM22.366 21.5814V17H26.0048L25.4002 21.5814H22.366ZM17.2786 21.5814L16.6691 17H20.3141V21.5814H17.2786ZM12.5557 21.5814H12.5525C12.3024 21.5814 12.0821 21.4127 12.0171 21.1724L10.8925 17H14.5991L15.2086 21.5814H12.5557ZM16.396 14.9482L15.779 10.3111L20.3141 10.3293V14.9482H16.396ZM22.366 14.9482V10.3376L26.8816 10.3558L26.2756 14.9482H22.366ZM13.7079 10.3027L14.326 14.9482H10.3394L9.08233 10.284L13.7079 10.3027ZM29.9612 21.5814H27.4698L28.0744 17H31.4239L30.457 21.187C30.4034 21.4193 30.1995 21.5814 29.9612 21.5814Z" fill="#777777"/>
</g>
<defs>
<clipPath id="clip0">
<rect width="35" height="35" fill="white"/>
</clipPath>
</defs>
</svg>
