<svg width="25" height="25" viewBox="0 0 25 25" fill="none" xmlns="http://www.w3.org/2000/svg">
<g clip-path="url(#clip0)">
<rect width="25" height="25" fill="white"/>
<path d="M22.3958 4.16666H2.60415C1.16875 4.16666 0 5.33541 0 6.77086V18.2292C0 19.6646 1.16875 20.8334 2.60415 20.8334H22.3958C23.8312 20.8334 24.9999 19.6646 24.9999 18.2292V6.77086C25 5.33541 23.8312 4.16666 22.3958 4.16666ZM23.9583 18.2292C23.9583 19.0906 23.2573 19.7917 22.3958 19.7917H2.60415C1.74268 19.7917 1.04165 19.0906 1.04165 18.2292V6.77086C1.04165 5.90938 1.74268 5.20836 2.60415 5.20836H22.3958C23.2573 5.20836 23.9583 5.90938 23.9583 6.77086V18.2292H23.9583Z" fill="black"/>
<path d="M24.4792 7.29164H0.52085C0.23335 7.29164 0 7.52499 0 7.81249V10.9375C0 11.225 0.23335 11.4583 0.52085 11.4583H24.4792C24.7667 11.4583 25 11.225 25 10.9375V7.81249C25 7.52499 24.7667 7.29164 24.4792 7.29164ZM23.9583 10.4166H1.04165V8.33329H23.9583V10.4166H23.9583Z" fill="black"/>
<path d="M9.89585 14.5833H3.64585C3.35835 14.5833 3.125 14.8167 3.125 15.1042C3.125 15.3917 3.35835 15.625 3.64585 15.625H9.89585C10.1834 15.625 10.4167 15.3916 10.4167 15.1041C10.4167 14.8166 10.1834 14.5833 9.89585 14.5833Z" fill="black"/>
<path d="M9.89585 16.6667H3.64585C3.35835 16.6667 3.125 16.9 3.125 17.1875C3.125 17.475 3.35835 17.7084 3.64585 17.7084H9.89585C10.1834 17.7084 10.4167 17.475 10.4167 17.1875C10.4167 16.9 10.1834 16.6667 9.89585 16.6667Z" fill="black"/>
<path d="M20.3125 13.5417H19.2708C18.4094 13.5417 17.7083 14.2427 17.7083 15.1042V16.1458C17.7083 17.0073 18.4094 17.7083 19.2708 17.7083H20.3125C21.174 17.7083 21.875 17.0073 21.875 16.1458V15.1042C21.875 14.2427 21.174 13.5417 20.3125 13.5417ZM20.8333 16.1459C20.8333 16.4334 20.6 16.6667 20.3125 16.6667H19.2708C18.9833 16.6667 18.75 16.4334 18.75 16.1459V15.1042C18.75 14.8167 18.9833 14.5834 19.2708 14.5834H20.3125C20.6 14.5834 20.8333 14.8167 20.8333 15.1042V16.1459Z" fill="black"/>
</g>
<defs>
<clipPath id="clip0">
<rect width="25" height="25" fill="white"/>
</clipPath>
</defs>
</svg>
