<svg width="30" height="30" viewBox="0 0 30 30" fill="none" xmlns="http://www.w3.org/2000/svg">
<g clip-path="url(#clip0)">
<path d="M29.0662 3.65044L26.3477 0.931699C25.1056 -0.310428 23.0847 -0.310369 21.8426 0.931699C20.6731 2.10129 2.81047 19.9653 1.61674 21.159C1.4896 21.2862 1.4044 21.4552 1.37405 21.6205L0.0147936 28.9611C-0.0378821 29.2457 0.0528209 29.538 0.257489 29.7427C0.462391 29.9476 0.754773 30.0381 1.03901 29.9854L8.37898 28.626C8.54861 28.5943 8.71537 28.5083 8.84041 28.3832L29.0662 8.15588C30.3112 6.91089 30.3114 4.89562 29.0662 3.65044ZM1.97592 28.0241L2.79817 23.5836L6.4161 27.2017L1.97592 28.0241ZM8.21896 26.5187L3.48114 21.7806L20.7786 4.48183L25.5164 9.22L8.21896 26.5187ZM27.8233 6.91294L26.7593 7.97706L22.0215 3.23888L23.0855 2.17476C23.6422 1.61801 24.548 1.61795 25.1048 2.17476L27.8233 4.89351C28.3814 5.45161 28.3814 6.35477 27.8233 6.91294Z" fill="black"/>
</g>
<defs>
<clipPath id="clip0">
<rect width="30" height="30" fill="white"/>
</clipPath>
</defs>
</svg>
