<svg width="30" height="30" viewBox="0 0 30 30" fill="none" xmlns="http://www.w3.org/2000/svg">
<g clip-path="url(#clip0)">
<path d="M24.9198 3.00926H19.5611V0.978281C19.5611 0.438047 19.1231 0 18.5828 0H11.4173C10.877 0 10.439 0.437988 10.439 0.978281V3.00926H5.0803C4.54007 3.00926 4.10202 3.44725 4.10202 3.98754V6.99674C4.10202 7.53697 4.54001 7.97502 5.0803 7.97502H5.37749L6.27163 29.0633C6.29378 29.5869 6.72485 30.0001 7.24897 30.0001H22.751C23.2752 30.0001 23.7062 29.5869 23.7284 29.0632L24.6224 7.97496H24.9197C25.4599 7.97496 25.898 7.53697 25.898 6.99668V3.98754C25.8981 3.44719 25.4601 3.00926 24.9198 3.00926ZM12.3956 1.9565H17.6045V3.00926H12.3956V1.9565ZM21.8134 28.0435H8.18665L7.33575 7.97502H22.6642L21.8134 28.0435ZM23.9415 6.01846C23.0526 6.01846 6.59108 6.01846 6.05858 6.01846V4.96576H23.9415V6.01846Z" fill="black"/>
<path d="M11.0646 10.9748C10.5243 10.9748 10.0863 11.4128 10.0863 11.9531V24.0653C10.0863 24.6055 10.5243 25.0436 11.0646 25.0436C11.6048 25.0436 12.0428 24.6056 12.0428 24.0653V11.9531C12.0428 11.4128 11.6048 10.9748 11.0646 10.9748Z" fill="black"/>
<path d="M14.9999 10.9748C14.4597 10.9748 14.0216 11.4128 14.0216 11.9531V24.0653C14.0216 24.6055 14.4595 25.0436 14.9999 25.0436C15.5401 25.0436 15.9782 24.6056 15.9782 24.0653V11.9531C15.9781 11.4128 15.5401 10.9748 14.9999 10.9748Z" fill="black"/>
<path d="M18.9352 10.9748C18.395 10.9748 17.9569 11.4128 17.9569 11.9531V24.0653C17.9569 24.6055 18.3949 25.0436 18.9352 25.0436C19.4755 25.0436 19.9135 24.6056 19.9135 24.0653V11.9531C19.9135 11.4128 19.4755 10.9748 18.9352 10.9748Z" fill="black"/>
</g>
<defs>
<clipPath id="clip0">
<rect width="30" height="30" fill="white"/>
</clipPath>
</defs>
</svg>
