<svg width="35" height="35" viewBox="0 0 35 35" fill="none" xmlns="http://www.w3.org/2000/svg">
<g clip-path="url(#clip0)">
<path d="M17.2506 16.8596C19.5668 16.8596 21.5725 16.0289 23.2112 14.3899C24.85 12.7511 25.6807 10.746 25.6807 8.42953C25.6807 6.11387 24.85 4.10849 23.2109 2.46921C21.5719 0.830723 19.5665 0 17.2506 0C14.9341 0 12.929 0.830723 11.2902 2.46947C9.65149 4.10822 8.8205 6.1136 8.8205 8.42953C8.8205 10.746 9.65149 12.7514 11.2905 14.3901C12.9295 16.0286 14.9349 16.8596 17.2506 16.8596Z" fill="#777777"/>
<path d="M32.001 26.9132C31.9537 26.2312 31.8581 25.4873 31.7174 24.7017C31.5754 23.9102 31.3924 23.162 31.1735 22.4781C30.9473 21.7713 30.6397 21.0733 30.2594 20.4044C29.8648 19.7101 29.4012 19.1056 28.881 18.6081C28.3371 18.0877 27.6711 17.6692 26.901 17.364C26.1336 17.0604 25.2831 16.9066 24.3733 16.9066C24.016 16.9066 23.6705 17.0532 23.0032 17.4877C22.5925 17.7555 22.1121 18.0652 21.5759 18.4078C21.1174 18.7 20.4963 18.9737 19.7292 19.2215C18.9807 19.4637 18.2207 19.5865 17.4706 19.5865C16.7205 19.5865 15.9608 19.4637 15.2116 19.2215C14.4452 18.9739 13.8241 18.7002 13.3661 18.4081C12.835 18.0687 12.3544 17.759 11.9375 17.4874C11.271 17.0529 10.9252 16.9063 10.5679 16.9063C9.6579 16.9063 8.80768 17.0604 8.0405 17.3643C7.27093 17.669 6.60469 18.0874 6.06022 18.6084C5.54031 19.1061 5.07648 19.7104 4.68235 20.4044C4.30237 21.0733 3.99475 21.7711 3.76831 22.4784C3.54961 23.1623 3.3667 23.9102 3.22464 24.7017C3.08392 25.4862 2.98832 26.2304 2.94106 26.914C2.89459 27.5837 2.87109 28.2788 2.87109 28.9808C2.87109 30.8078 3.45188 32.2869 4.59717 33.3777C5.7283 34.4541 7.225 35.0001 9.04507 35.0001H25.8978C27.7179 35.0001 29.214 34.4543 30.3454 33.3777C31.491 32.2877 32.0718 30.8083 32.0718 28.9805C32.0715 28.2753 32.0477 27.5797 32.001 26.9132Z" fill="#777777"/>
</g>
<defs>
<clipPath id="clip0">
<rect width="35" height="35" fill="white"/>
</clipPath>
</defs>
</svg>
